<?xml version="1.0" standalone="no"?>
<!DOCTYPE svg PUBLIC "-//W3C//DTD SVG 20010904//EN"
 "http://www.w3.org/TR/2001/REC-SVG-20010904/DTD/svg10.dtd">
<svg version="1.0" xmlns="http://www.w3.org/2000/svg"
 width="500.000000pt" height="500.000000pt" viewBox="0 0 500.000000 500.000000"
 preserveAspectRatio="xMidYMid meet">
<metadata>
Created by potrace 1.11, written by Peter Selinger 2001-2013
</metadata>
<g transform="translate(0.000000,500.000000) scale(0.100000,-0.100000)"
fill="#000000" stroke="none">
<path d="M0 2500 l0 -2500 2500 0 2500 0 0 2500 0 2500 -2500 0 -2500 0 0
-2500z m1640 190 c134 -357 247 -644 251 -637 6 10 359 1018 431 1230 l20 57
284 0 284 0 0 -40 0 -40 -82 0 c-107 0 -156 -14 -168 -46 -6 -15 -10 -302 -10
-713 l0 -688 25 -23 c22 -21 37 -24 130 -28 l105 -5 0 -38 0 -39 -380 0 -380
0 0 40 0 40 85 0 c93 0 147 16 164 49 8 14 10 231 9 722 l-3 701 -270 -776
-270 -776 -41 0 -41 0 -243 648 c-134 356 -265 703 -291 772 l-49 125 3 -655
2 -655 22 -42 c35 -64 87 -93 196 -108 l47 -6 0 -40 0 -39 -315 0 -315 0 0 40
c0 38 1 39 38 45 134 20 191 63 211 155 14 66 15 1273 1 1300 -15 28 -64 40
-161 40 l-89 0 0 40 0 40 278 0 277 0 245 -650z m2540 611 l0 -38 -85 -5 c-72
-4 -90 -8 -108 -27 l-22 -22 -5 -612 -5 -612 -23 -58 c-16 -38 -45 -81 -84
-123 -97 -103 -226 -154 -388 -154 -147 0 -251 40 -340 129 -111 112 -144 252
-94 403 19 59 96 134 148 144 130 24 226 -49 226 -171 0 -55 -18 -93 -62 -130
-29 -24 -38 -27 -83 -22 -27 4 -59 9 -71 12 -29 9 -54 -19 -54 -58 1 -75 67
-158 159 -201 35 -15 66 -20 131 -20 73 0 93 4 136 27 62 32 107 83 137 157
22 55 22 60 25 670 l3 616 -26 24 c-24 23 -36 25 -141 29 l-114 3 0 39 0 39
370 0 370 0 0 -39z"/>
</g>
</svg>
